<?xml version="1.0" encoding="UTF-8"?>
<svg width="23px" height="21px" viewBox="0 0 23 21" version="1.1" xmlns="http://www.w3.org/2000/svg" xmlns:xlink="http://www.w3.org/1999/xlink">
    <!-- Generator: Sketch 47.1 (45422) - http://www.bohemiancoding.com/sketch -->
    <title>Path</title>
    <desc>Created with Sketch.</desc>
    <defs></defs>
    <g id="Symbols" stroke="none" stroke-width="1" fill="none" fill-rule="evenodd">
        <g id="contatos" transform="translate(-302.000000, -13.000000)" fill="#6A8DD6">
            <g id="Group-2" transform="translate(300.000000, 13.000000)">
                <path d="M24.0296538,15.3521206 C23.8994098,15.0916326 23.5086778,14.9613886 22.9877019,14.7009006 C22.4667259,14.4404126 19.8618461,13.1379727 19.3408701,13.0077287 C18.8198942,12.8774848 18.5594062,12.7472408 18.1686742,13.2682167 C17.7779422,13.7891927 16.7359903,14.9613886 16.4755023,15.3521206 C16.2150143,15.7428526 15.8242824,15.7428526 15.3033064,15.4823646 C14.7823304,15.2218766 13.0891585,14.7009006 11.0052547,12.8774848 C9.44232678,11.4448008 8.40037485,9.75162896 8.00964288,9.230653 C7.7491549,8.70967703 8.00964288,8.44918905 8.27013086,8.18870107 C8.53061884,7.92821309 8.79110683,7.53748111 9.05159481,7.27699313 C9.31208279,7.01650515 9.44232678,6.75601717 9.57257077,6.36528519 C9.70281476,5.97455322 9.70281476,5.71406524 9.57257077,5.45357725 C9.44232678,5.19308927 8.40037485,2.58820945 7.87939889,1.54625752 C7.6189109,0.374061595 7.09793494,0.504305586 6.83744696,0.504305586 C6.57695897,0.504305586 6.186227,0.504305586 5.79549503,0.504305586 C5.40476305,0.504305586 4.88378709,0.634549578 4.36281112,1.15552554 C3.84183516,1.67650151 2.53939525,2.97894142 2.53939525,5.58382124 C2.53939525,8.18870107 4.49305512,10.6633369 4.7535431,11.0540689 C5.01403108,11.4448008 8.40037485,16.9150485 13.8706225,18.9989523 C19.3408701,21.0828562 19.3408701,20.4316362 20.2525781,20.3013923 C21.164286,20.1711483 23.3784338,18.9989523 23.8994098,17.8267564 C24.1598978,16.6545605 24.1598978,15.4823646 24.0296538,15.3521206 L24.0296538,15.3521206 Z" id="Path"></path>
            </g>
        </g>
    </g>
</svg>